<svg width="139" height="126" viewBox="0 0 139 126" fill="none" xmlns="http://www.w3.org/2000/svg">
<path d="M69.5 0C88.9677 1.96672e-06 105.451 6.11117 118.948 18.334C132.316 30.4269 139 45.3158 139 63C139 80.2941 132.186 95.1178 118.559 107.471C104.931 119.823 88.5136 126 69.3057 126C49.5785 126 33.0955 119.889 19.8574 107.666C6.61942 95.3132 8.94793e-05 80.0343 0 61.8301C-7.67317e-07 44.2759 6.68388 29.5818 20.0518 17.749C33.2898 5.91625 49.7727 8.62308e-07 69.5 0ZM72.6152 34.3281C46.7882 34.3281 27.7095 37.3838 15.3799 43.4951C7.33319 47.5261 3.30957 53.8983 3.30957 62.6104C3.30976 71.4522 8.95514 78.539 20.2461 83.8701C31.5374 89.0714 46.6578 91.6719 65.6064 91.6719C93.1208 91.6719 113.692 86.991 127.319 77.6289C133.03 73.728 135.885 68.0709 135.885 60.6592C135.885 52.0773 131.797 46.0313 123.62 42.5205C110.901 37.0593 93.8998 34.3282 72.6152 34.3281Z" fill="#D3BBB6"/>
</svg>
