<svg width="123" height="24" viewBox="0 0 123 24" fill="none" xmlns="http://www.w3.org/2000/svg">
<path d="M13.2383 0C16.9463 4.64498e-05 20.0863 1.16406 22.6572 3.49219C25.2033 5.79556 26.4766 8.63168 26.4766 12C26.4766 15.294 25.1786 18.1178 22.583 20.4707C19.9874 22.8236 16.8598 24 13.2012 24C9.44359 24 6.30376 22.836 3.78223 20.5078C1.26076 18.1549 6.20975e-05 15.2447 0 11.7773C-1.46154e-07 8.43371 1.27311 5.63472 3.81934 3.38086C6.34087 1.12699 9.4807 1.6425e-07 13.2383 0ZM51.8486 3.66699C52.1347 3.68289 52.4134 3.69043 52.6836 3.69043H53.4707C53.4887 3.69031 53.6554 3.68276 53.9707 3.66699H56.2119C58.4372 3.66699 59.956 3.84172 60.7666 4.19141C61.4022 4.46162 61.9106 4.87541 62.292 5.43164C62.6734 5.98793 62.8643 6.60004 62.8643 7.26758C62.8641 8.79327 62.0697 9.9222 60.4805 10.6533C59.7812 10.9712 58.7476 11.2092 57.3809 11.3682L57.3564 11.5117C59.089 11.623 60.3452 12.0839 61.124 12.8945C61.9026 13.6893 62.3713 14.9845 62.5303 16.7803C62.6574 18.2108 62.8567 19.109 63.127 19.4746C63.3971 19.8241 63.6749 19.999 63.9609 19.999C64.1993 19.999 64.3183 19.9356 64.3184 19.8086C64.3184 19.745 64.223 19.6572 64.0322 19.5459C63.8576 19.4346 63.7705 19.2758 63.7705 19.0693C63.7705 18.6402 64.0086 18.4258 64.4854 18.4258C64.9622 18.4258 65.2012 18.6959 65.2012 19.2363C65.2011 20.1264 64.6202 20.5713 63.46 20.5713C61.9978 20.5712 60.8292 20.1103 59.9551 19.1885C59.2717 18.4733 58.8825 17.71 58.7871 16.8994L58.5488 14.9443C58.3899 13.7048 58.096 12.8385 57.667 12.3457C57.2537 11.853 56.5775 11.615 55.6396 11.6309V17.043C55.6396 18.2985 55.6482 18.974 55.6641 19.0693C55.6641 19.3395 55.7755 19.5303 55.998 19.6416C56.2207 19.7369 56.6422 19.7842 57.2617 19.7842C57.6428 19.7842 57.8339 19.8561 57.834 19.999C57.834 20.1261 57.7383 20.1894 57.5479 20.1895L55.2344 20.166H54.8535C54.5676 20.1819 54.2972 20.1894 54.043 20.1895H52.3262C52.1672 20.1895 51.984 20.1819 51.7773 20.166H51.4434L50.3467 20.1895C50.1243 20.1894 50.0127 20.1261 50.0127 19.999C50.0129 19.8561 50.3391 19.7691 50.9902 19.7373C51.5306 19.7055 51.8489 19.578 51.9443 19.3555C51.992 19.2442 52.0156 18.9105 52.0156 18.3545V6.0752C52.0156 5.2491 51.9995 4.76444 51.9678 4.62109C51.936 4.46214 51.833 4.34217 51.6582 4.2627C51.4357 4.16739 51.0775 4.12012 50.585 4.12012C50.2355 4.12006 50.0605 4.04827 50.0605 3.90527C50.0606 3.79414 50.1325 3.73074 50.2754 3.71484C50.4184 3.68305 50.8 3.66699 51.4199 3.66699H51.8486ZM41.4785 3.42871C43.6243 3.42872 45.4208 4.24759 46.8672 5.88477C48.3134 7.506 49.0361 9.52456 49.0361 11.9404C49.0361 14.3247 48.2891 16.343 46.7949 17.9961C45.3167 19.6333 43.4967 20.4521 41.335 20.4521C39.2212 20.452 37.4093 19.6179 35.8994 17.9492C34.3895 16.2803 33.6349 14.2693 33.6348 11.917C33.6348 9.501 34.3809 7.48162 35.875 5.86035C37.385 4.23906 39.2532 3.42871 41.4785 3.42871ZM73.5869 3.42871C75.7326 3.42877 77.5282 4.24767 78.9746 5.88477C80.4211 7.50606 81.1445 9.52439 81.1445 11.9404C81.1445 14.3247 80.3974 16.343 78.9033 17.9961C77.4251 19.6333 75.6051 20.4521 73.4434 20.4521C71.3296 20.4521 69.5177 19.6179 68.0078 17.9492C66.4979 16.2803 65.7423 14.2693 65.7422 11.917C65.7422 9.50096 66.4893 7.48164 67.9834 5.86035C69.4934 4.23906 71.3616 3.42871 73.5869 3.42871ZM106.451 3.47656C106.547 3.47708 106.721 3.84259 106.976 4.57324C107.294 5.51138 108.692 9.21481 111.172 15.6836C111.49 16.5101 111.808 17.3526 112.126 18.2109C112.396 18.942 112.666 19.387 112.937 19.5459C113.143 19.673 113.636 19.7288 114.414 19.7129C114.605 19.7129 114.7 19.7847 114.7 19.9277C114.7 20.0548 114.637 20.1342 114.51 20.166C114.399 20.1819 114.096 20.1895 113.604 20.1895C113.476 20.1894 113.119 20.1819 112.531 20.166C111.355 20.1342 110.544 20.1182 110.099 20.1182C109.574 20.1182 109.113 20.1267 108.716 20.1426C107.921 20.1744 107.381 20.1895 107.095 20.1895C106.666 20.1895 106.451 20.1101 106.451 19.9512C106.452 19.7924 106.904 19.7054 107.81 19.6895C108.032 19.6895 108.199 19.6734 108.311 19.6416C108.565 19.6098 108.692 19.5144 108.692 19.3555C108.692 19.276 108.597 18.9423 108.406 18.3545L107.905 16.8047C107.81 16.455 107.603 15.8109 107.285 14.873H106.856L104.996 14.8496C104.329 14.8337 103.622 14.8413 102.875 14.873C102.732 15.1909 102.461 15.906 102.063 17.0186L101.539 18.5684C101.46 18.8067 101.42 18.9976 101.42 19.1406C101.42 19.4107 101.595 19.5855 101.944 19.665C102.024 19.6809 102.414 19.7131 103.113 19.7607C103.336 19.7767 103.447 19.8485 103.447 19.9756C103.447 20.1185 103.303 20.1895 103.018 20.1895L99.084 20.166C98.9886 20.1819 98.8847 20.1895 98.7734 20.1895C98.7085 20.1894 98.6534 20.1816 98.6074 20.168C98.4858 20.1815 98.3388 20.1895 98.167 20.1895C97.6584 20.1894 96.9195 20.1819 95.9502 20.166C95.2349 20.1501 94.7419 20.1501 94.4717 20.166L93.1367 20.2139L92.0635 20.2373C91.7143 20.2373 91.5395 20.1661 91.5391 20.0234C91.5391 19.9122 91.5788 19.848 91.6582 19.832C91.7536 19.8161 92.0398 19.8001 92.5166 19.7842C92.7709 19.7842 92.8984 19.7048 92.8984 19.5459C92.8975 19.4811 92.4601 18.8377 91.5869 17.6152L88.082 12.7031C87.8754 12.4965 87.7243 12.3293 87.6289 12.2021V18.2588C87.6289 18.9737 87.6847 19.4027 87.7959 19.5459C87.923 19.673 88.3283 19.7524 89.0117 19.7842C89.4091 19.8001 89.6084 19.8804 89.6084 20.0234C89.6081 20.1662 89.4645 20.2373 89.1787 20.2373L87.6768 20.2139C86.6754 20.198 85.6497 20.1895 84.6006 20.1895C84.4417 20.1895 84.1956 20.198 83.8623 20.2139C83.5445 20.2298 83.2024 20.2373 82.8369 20.2373H82.5264C82.2726 20.2372 82.1458 20.1661 82.1455 20.0234C82.1455 19.8804 82.4074 19.8001 82.9316 19.7842C83.4715 19.7683 83.7976 19.6972 83.9092 19.5703C84.0363 19.4432 84.1006 19.0927 84.1006 18.5205V4.76367C84.1006 4.54121 84.0448 4.39002 83.9336 4.31055C83.7746 4.21518 83.4327 4.16797 82.9082 4.16797C82.4473 4.16797 82.2168 4.09617 82.2168 3.95312C82.2168 3.82596 82.3283 3.7627 82.5508 3.7627L85.4355 3.80957H85.7217C85.8964 3.79369 86.0553 3.78614 86.1982 3.78613L87.6768 3.7627H88.6543C88.8291 3.7468 89.0199 3.73828 89.2266 3.73828C89.4172 3.73831 89.5127 3.8101 89.5127 3.95312C89.5127 4.06437 89.3218 4.12765 88.9404 4.14355C88.3046 4.17535 87.9231 4.23959 87.7959 4.33496C87.6848 4.41459 87.6289 4.69242 87.6289 5.16895V11.4639C88.0581 11.1142 89.505 9.54823 91.9688 6.7666C93.0653 5.52705 93.6131 4.74011 93.6133 4.40625C93.6133 4.29498 93.5415 4.23172 93.3984 4.21582C93.2551 4.18408 92.8497 4.16797 92.1826 4.16797C91.9603 4.1679 91.8486 4.0961 91.8486 3.95312C91.8486 3.79424 92.0397 3.72246 92.4209 3.73828L93.4707 3.7627H93.6846C93.8276 3.7468 93.9552 3.73828 94.0664 3.73828H96.5225C96.7449 3.73833 96.8564 3.81011 96.8564 3.95312C96.8564 4.11205 96.7289 4.1914 96.4746 4.19141C95.8867 4.19141 95.4814 4.23113 95.2588 4.31055C95.0522 4.39 94.798 4.58098 94.4961 4.88281C93.0179 6.42459 91.4755 8.13323 89.8701 10.0088C90.1403 10.3903 90.9035 11.3839 92.1592 12.9893C93.0334 14.086 94.2811 15.6841 95.9023 17.7822C96.617 18.7351 97.0859 19.3069 97.3086 19.498C97.531 19.6728 97.8572 19.7607 98.2861 19.7607C98.509 19.7607 98.6834 19.7734 98.8086 19.7979C98.9108 19.783 99.0341 19.7701 99.1787 19.7607C99.8141 19.729 100.22 19.6097 100.395 19.4033C100.569 19.1967 100.856 18.5288 101.253 17.4004C101.555 16.6057 101.992 15.4296 102.564 13.8721L105.449 5.93164C105.592 5.58195 105.792 5.03397 106.046 4.28711C106.221 3.74668 106.356 3.47656 106.451 3.47656ZM121.823 3.66699C122.03 3.66703 122.133 3.73055 122.133 3.85742C122.133 3.95279 122.093 4.01704 122.014 4.04883C121.95 4.06471 121.712 4.0808 121.299 4.09668C120.806 4.12847 120.504 4.2314 120.393 4.40625L120.321 4.85938V18.3301C120.321 19.013 120.392 19.4184 120.535 19.5459C120.694 19.673 121.211 19.7609 122.085 19.8086C122.228 19.8245 122.3 19.8878 122.3 19.999C122.3 20.1261 122.197 20.1894 121.99 20.1895C121.879 20.1895 121.775 20.1819 121.68 20.166C120.726 20.1183 119.908 20.0947 119.225 20.0947C118.509 20.0947 117.46 20.1183 116.077 20.166C115.616 20.1819 115.274 20.1895 115.052 20.1895C114.813 20.1895 114.694 20.1185 114.694 19.9756C114.694 19.8961 114.734 19.8479 114.813 19.832C114.909 19.8161 115.219 19.8001 115.743 19.7842C116.236 19.6888 116.522 19.5462 116.602 19.3555C116.681 19.1488 116.721 18.5047 116.721 17.4238V5.07422C116.706 4.81525 116.699 4.67952 116.697 4.66797C116.697 4.27092 116.299 4.07228 115.505 4.07227C115.06 4.07227 114.837 4.01654 114.837 3.90527C114.837 3.79413 114.869 3.73073 114.933 3.71484C114.996 3.69895 115.203 3.69043 115.553 3.69043C115.394 3.69043 115.68 3.69895 116.411 3.71484C117.142 3.73073 117.77 3.73828 118.294 3.73828H119.511C119.765 3.73827 120.122 3.73073 120.583 3.71484C121.06 3.68305 121.394 3.66699 121.585 3.66699H121.823ZM41.3828 3.83398C40.3021 3.8341 39.4358 4.52548 38.7842 5.9082C38.1484 7.29107 37.8301 9.1432 37.8301 11.4639C37.8301 14.8333 38.4026 17.3526 39.5469 19.0215C40.0237 19.7208 40.7153 20.0702 41.6211 20.0703C42.6702 20.0703 43.4097 19.5697 43.8389 18.5684C44.5064 17.0107 44.8398 14.9287 44.8398 12.3223C44.8398 9.15934 44.4667 6.82253 43.7197 5.3125C43.227 4.32701 42.4478 3.83398 41.3828 3.83398ZM73.4912 3.83398C72.4104 3.83403 71.5442 4.52545 70.8926 5.9082C70.2568 7.29107 69.9385 9.1432 69.9385 11.4639C69.9385 14.8333 70.511 17.3526 71.6553 19.0215C72.1321 19.7208 72.8236 20.0702 73.7295 20.0703C74.7786 20.0703 75.5181 19.5697 75.9473 18.5684C76.6147 17.0108 76.9482 14.9287 76.9482 12.3223C76.9482 9.15939 76.5751 6.82254 75.8281 5.3125C75.3354 4.32701 74.5562 3.83398 73.4912 3.83398ZM13.8311 6.53906C8.9118 6.53909 5.27813 7.12112 2.92969 8.28516C1.39699 9.05296 0.630859 10.2663 0.630859 11.9258C0.630895 13.61 1.70576 14.9601 3.85645 15.9756C6.00709 16.9662 8.88706 17.4609 12.4961 17.4609C17.7369 17.4609 21.6553 16.5694 24.251 14.7861C25.3387 14.0431 25.8828 12.9655 25.8828 11.5537C25.8827 9.91928 25.1041 8.7673 23.5469 8.09863C21.1242 7.05839 17.8853 6.53906 13.8311 6.53906ZM105.092 8.67383C104.806 9.35723 104.456 10.3029 104.043 11.5107C103.582 12.8618 103.248 13.8082 103.041 14.3486C103.184 14.3486 103.36 14.3401 103.566 14.3242H105.426C105.791 14.3242 106.355 14.3327 107.118 14.3486C107.102 14.301 107.047 14.1497 106.952 13.8955C106.316 12.0517 105.854 10.7559 105.568 10.0088C105.489 9.80225 105.378 9.50038 105.235 9.10352L105.092 8.67383ZM56.7363 4.12012C56.212 4.12021 55.8859 4.29493 55.7588 4.64453C55.6793 4.86717 55.6397 5.73347 55.6396 7.24316V11.2012C56.8794 11.2171 57.7777 10.9072 58.334 10.2715C58.8903 9.63568 59.1689 8.60997 59.1689 7.19531C59.1688 5.14514 58.3575 4.12012 56.7363 4.12012Z" fill="white"/>
</svg>
