<svg width="27" height="24" viewBox="0 0 27 24" fill="none" xmlns="http://www.w3.org/2000/svg">
<path d="M13.2383 0C16.9463 3.93246e-05 20.0863 1.16405 22.6572 3.49219C25.2034 5.79556 26.4766 8.63167 26.4766 12C26.4766 15.2941 25.1786 18.1178 22.583 20.4707C19.9873 22.8236 16.8598 24 13.2012 24C9.44358 24 6.30377 22.836 3.78223 20.5078C1.26075 18.1549 6.20976e-05 15.2447 0 11.7773C-1.46155e-07 8.43372 1.27311 5.63472 3.81934 3.38086C6.34088 1.12699 9.48069 1.6425e-07 13.2383 0ZM13.8311 6.53906C8.9118 6.53909 5.27813 7.12112 2.92969 8.28516C1.39698 9.05296 0.630859 10.2663 0.630859 11.9258C0.630895 13.61 1.70575 14.9601 3.85645 15.9756C6.00709 16.9662 8.88706 17.4609 12.4961 17.4609C17.7369 17.4609 21.6553 16.5694 24.251 14.7861C25.3387 14.0431 25.8828 12.9655 25.8828 11.5537C25.8827 9.91928 25.1041 8.7673 23.5469 8.09863C21.1242 7.0584 17.8853 6.53906 13.8311 6.53906Z" fill="white"/>
</svg>
