<svg width="714" height="140" viewBox="0 0 714 140" fill="none" xmlns="http://www.w3.org/2000/svg">
<path d="M77.2217 0C98.8523 -9.45509e-07 117.167 6.7903 132.164 20.3711C147.017 33.8076 154.444 50.3509 154.444 70C154.444 89.2157 146.873 105.687 131.731 119.412C116.59 133.137 98.3481 140 77.0059 140C55.0867 140 36.7724 133.21 22.0635 119.629C7.35452 105.903 8.84149e-07 88.9263 0 68.6992C0.000117637 49.195 7.42652 32.8691 22.2793 19.7217C36.9882 6.57417 55.3026 6.71186e-05 77.2217 0ZM302.452 21.3916C304.121 21.4843 305.744 21.5303 307.32 21.5303H311.91C312.003 21.5303 312.977 21.4843 314.831 21.3916H327.904C340.885 21.3916 349.74 22.4114 354.469 24.4512C358.178 26.0274 361.145 28.4384 363.37 31.6836C365.595 34.9288 366.708 38.4984 366.708 42.3926C366.708 51.2937 362.072 57.8765 352.8 62.1416C348.72 63.996 342.694 65.3873 334.72 66.3145L334.58 67.1484C344.687 67.7975 352.012 70.4871 356.556 75.2158C361.099 79.8519 363.834 87.4086 364.761 97.8857C365.503 106.231 366.662 111.47 368.238 113.603C369.814 115.642 371.437 116.662 373.105 116.662C374.496 116.662 375.192 116.291 375.192 115.549C375.192 115.178 374.636 114.668 373.523 114.02C372.504 113.37 371.993 112.443 371.993 111.237C371.993 108.734 373.385 107.482 376.166 107.482C378.947 107.483 380.338 109.059 380.338 112.211C380.338 117.403 376.954 120 370.186 120C361.655 120 354.84 117.31 349.74 111.933C345.753 107.76 343.481 103.31 342.925 98.5811L341.534 87.1768C340.607 79.9445 338.892 74.8909 336.389 72.0166C333.978 69.1423 330.037 67.752 324.566 67.8447V99.416C324.566 106.739 324.613 110.68 324.706 111.237C324.706 112.813 325.355 113.926 326.652 114.575C327.95 115.132 330.408 115.41 334.024 115.41C336.25 115.41 337.362 115.828 337.362 116.662C337.362 117.404 336.806 117.774 335.693 117.774L322.202 117.636H319.977C318.308 117.728 316.731 117.774 315.248 117.774H305.234C304.307 117.774 303.241 117.728 302.035 117.636H300.088L293.69 117.774C292.393 117.774 291.743 117.404 291.743 116.662C291.743 115.828 293.644 115.317 297.445 115.132C300.598 114.946 302.452 114.204 303.009 112.906C303.287 112.257 303.426 110.31 303.426 107.065V35.4385C303.426 30.617 303.334 27.7886 303.148 26.9541C302.963 26.027 302.36 25.3317 301.34 24.8682C300.042 24.3119 297.955 24.0342 295.081 24.0342C293.042 24.0341 292.022 23.6165 292.021 22.7822C292.021 22.1332 292.439 21.7617 293.273 21.6689C294.108 21.4835 296.333 21.3916 299.949 21.3916H302.452ZM241.958 20C254.475 20.0001 264.952 24.776 273.39 34.3262C281.827 43.7837 286.047 55.5588 286.047 69.6523C286.047 83.5605 281.688 95.3365 272.973 104.979C264.35 114.53 253.733 119.305 241.123 119.305C228.791 119.305 218.221 114.437 209.413 104.701C200.605 94.9656 196.2 83.2362 196.2 69.5137C196.2 55.4201 200.558 43.6441 209.273 34.1865C218.082 24.729 228.977 20 241.958 20ZM429.256 20C441.773 20 452.251 24.776 460.688 34.3262C469.126 43.7836 473.345 55.559 473.345 69.6523C473.345 83.5605 468.986 95.3365 460.271 104.979C451.648 114.529 441.031 119.305 428.421 119.305C416.089 119.305 405.519 114.437 396.711 104.701C387.903 94.9656 383.498 83.2362 383.498 69.5137C383.498 55.4201 387.856 43.644 396.571 34.1865C405.38 24.729 416.275 20 429.256 20ZM620.964 20.2783C621.52 20.2783 622.54 22.4109 624.023 26.6758C625.878 32.1463 634.037 53.7509 648.502 91.4883C650.356 96.3097 652.211 101.224 654.065 106.23C655.642 110.496 657.218 113.092 658.794 114.02C659.999 114.761 662.874 115.086 667.417 114.993C668.528 114.993 669.083 115.409 669.085 116.24C669.165 115.945 669.384 115.761 669.744 115.688C670.3 115.596 672.109 115.503 675.169 115.41C678.043 114.854 679.712 114.019 680.176 112.906C680.639 111.7 680.871 107.945 680.871 101.641V29.5967C680.778 27.9288 680.732 27.1407 680.732 27.2324C680.732 24.9146 678.414 23.7559 673.778 23.7559C671.182 23.7559 669.884 23.4311 669.884 22.7822C669.884 22.1332 670.07 21.7617 670.44 21.6689C670.812 21.5763 672.017 21.5303 674.056 21.5303C673.129 21.5303 674.798 21.5762 679.062 21.6689C683.328 21.7617 686.991 21.8086 690.051 21.8086H697.144C698.627 21.8086 700.713 21.7617 703.402 21.6689C706.183 21.4835 708.13 21.3916 709.243 21.3916H710.635C711.84 21.3917 712.442 21.7622 712.442 22.5039C712.442 23.0601 712.211 23.4308 711.747 23.6162C711.376 23.7089 709.985 23.8018 707.574 23.8945C704.7 24.08 702.939 24.6832 702.29 25.7031L701.872 28.3457V106.926C701.872 110.913 702.29 113.278 703.124 114.02C704.051 114.761 707.065 115.271 712.164 115.549C712.999 115.642 713.416 116.013 713.416 116.662C713.416 117.404 712.813 117.774 711.608 117.774C710.959 117.774 710.356 117.728 709.8 117.636C704.237 117.358 699.462 117.218 695.475 117.218C691.302 117.218 685.183 117.358 677.116 117.636C674.428 117.728 672.434 117.774 671.136 117.774C669.787 117.774 669.093 117.382 669.053 116.597C668.949 117.135 668.59 117.482 667.974 117.636C667.325 117.728 665.563 117.774 662.688 117.774C661.947 117.774 659.86 117.728 656.43 117.636C649.568 117.45 644.839 117.357 642.243 117.357C639.184 117.357 636.495 117.403 634.177 117.496C629.541 117.682 626.388 117.774 624.719 117.774C622.216 117.774 620.964 117.311 620.964 116.384C620.964 115.457 623.607 114.946 628.892 114.854C630.19 114.854 631.163 114.761 631.812 114.575C633.296 114.39 634.038 113.833 634.038 112.906C634.038 112.442 633.481 110.495 632.369 107.065L629.448 98.0244C628.892 95.9845 627.686 92.2297 625.832 86.7598H623.328L612.48 86.6201C608.586 86.5274 604.459 86.5743 600.102 86.7598C599.267 88.6144 597.691 92.7866 595.373 99.2764L592.313 108.317C591.85 109.708 591.618 110.821 591.618 111.655C591.618 113.231 592.638 114.251 594.678 114.715C595.142 114.808 597.413 114.992 601.492 115.271C602.79 115.363 603.439 115.781 603.439 116.522C603.439 117.357 602.605 117.774 600.937 117.774L577.988 117.636C577.432 117.728 576.829 117.774 576.18 117.774C575.8 117.774 575.477 117.732 575.209 117.653C574.5 117.732 573.644 117.774 572.643 117.774C569.676 117.774 565.364 117.727 559.708 117.635C555.536 117.542 552.661 117.542 551.085 117.635L543.297 117.913L537.038 118.053C534.998 118.053 533.979 117.635 533.979 116.801C533.979 116.152 534.21 115.781 534.674 115.688C535.23 115.596 536.899 115.503 539.681 115.41C541.164 115.41 541.906 114.946 541.906 114.02C541.906 113.649 539.356 109.893 534.257 102.754L513.812 74.1025C512.606 72.8972 511.725 71.9234 511.169 71.1816V106.509C511.169 110.681 511.494 113.185 512.143 114.02C512.885 114.761 515.249 115.225 519.235 115.41C521.553 115.503 522.713 115.966 522.713 116.801C522.713 117.635 521.878 118.053 520.209 118.053L511.447 117.913C505.606 117.82 499.625 117.774 493.506 117.774C492.579 117.774 491.141 117.82 489.194 117.913C487.34 118.006 485.346 118.053 483.214 118.053H481.405C479.922 118.053 479.181 117.635 479.181 116.801C479.181 115.966 480.711 115.503 483.771 115.41C486.923 115.317 488.824 114.9 489.473 114.158C490.214 113.416 490.585 111.377 490.585 108.039V27.7891C490.585 26.491 490.26 25.6101 489.611 25.1465C488.684 24.5902 486.691 24.3115 483.631 24.3115C480.942 24.3115 479.598 23.894 479.598 23.0596C479.598 22.318 480.247 21.9473 481.545 21.9473L498.374 22.2256H500.043C501.063 22.1329 501.99 22.0859 502.824 22.0859L511.447 21.9473H517.149C518.169 21.8546 519.282 21.8086 520.487 21.8086C521.6 21.8086 522.156 22.2253 522.156 23.0596C522.156 23.7086 521.044 24.0801 518.818 24.1729C515.11 24.3583 512.884 24.7288 512.143 25.2852C511.494 25.7488 511.169 27.3717 511.169 30.1533V66.8701C513.673 64.8301 522.11 55.6974 536.481 39.4717C542.879 32.2395 546.078 27.6493 546.078 25.7021C546.078 25.0534 545.661 24.6826 544.827 24.5898C543.993 24.4044 541.628 24.3115 537.733 24.3115C536.435 24.3115 535.786 23.894 535.786 23.0596C535.786 22.1327 536.899 21.7159 539.124 21.8086L545.244 21.9473H546.496C547.33 21.8546 548.072 21.8086 548.721 21.8086H563.047C564.344 21.8087 564.993 22.2254 564.993 23.0596C564.993 23.9867 564.252 24.4511 562.769 24.4512C559.338 24.4512 556.973 24.6829 555.675 25.1465C554.47 25.6102 552.986 26.7229 551.225 28.4844C542.602 37.4782 533.608 47.4457 524.243 58.3867C525.82 60.6122 530.27 66.4071 537.595 75.7715C542.694 82.1692 549.973 91.4884 559.431 103.728C563.603 109.29 566.338 112.629 567.636 113.741C568.934 114.761 570.835 115.271 573.339 115.271C574.637 115.271 575.651 115.341 576.381 115.483C576.978 115.397 577.699 115.325 578.544 115.271C582.253 115.085 584.618 114.39 585.638 113.185C586.658 111.979 588.327 108.085 590.645 101.502C592.406 96.8659 594.956 90.0046 598.294 80.918L615.123 34.6035C615.958 32.5636 617.116 29.3644 618.6 25.0068C619.619 21.8548 620.408 20.2786 620.964 20.2783ZM241.401 22.3643C235.096 22.3643 230.043 26.3981 226.241 34.4648C222.532 42.5315 220.679 53.3339 220.679 66.8711C220.679 86.5277 224.017 101.224 230.692 110.96C233.474 115.039 237.507 117.079 242.792 117.079C248.911 117.079 253.223 114.159 255.727 108.317C259.621 99.2308 261.568 87.084 261.568 71.8779C261.568 53.4265 259.389 39.7958 255.031 30.9873C252.157 25.2389 247.614 22.3643 241.401 22.3643ZM428.699 22.3643C422.394 22.3643 417.341 26.3982 413.539 34.4648C409.83 42.5315 407.977 53.334 407.977 66.8711C407.977 86.5277 411.314 101.224 417.99 110.96C420.772 115.039 424.805 117.079 430.09 117.079C436.209 117.079 440.521 114.158 443.024 108.317C446.919 99.2308 448.866 87.084 448.866 71.8779C448.866 53.4265 446.687 39.7958 442.329 30.9873C439.455 25.2389 434.911 22.3643 428.699 22.3643ZM80.6826 38.1426C51.9859 38.1426 30.7874 41.5376 17.0879 48.3281C8.14742 52.8069 3.67681 59.8865 3.67676 69.5664C3.67676 79.3909 9.95029 87.2649 22.4961 93.1885C35.0419 98.9676 51.8417 101.857 72.8955 101.857C103.467 101.857 126.324 96.6564 141.466 86.2539C147.811 81.9195 150.983 75.6346 150.983 67.3994C150.983 57.8638 146.44 51.1451 137.355 47.2441C123.223 41.1761 104.332 38.1426 80.6826 38.1426ZM613.036 50.5986C611.367 54.5855 609.328 60.1021 606.917 67.1484C604.228 75.0295 602.281 80.5467 601.075 83.6992C601.91 83.6992 602.93 83.6532 604.135 83.5605H614.983C617.116 83.5605 620.408 83.6065 624.858 83.6992C624.766 83.4208 624.441 82.5398 623.885 81.0566C620.176 70.3013 617.487 62.7446 615.818 58.3867C615.355 57.1814 614.706 55.4196 613.871 53.1016L613.036 50.5986ZM330.964 24.0342C327.904 24.0343 326.003 25.054 325.262 27.0938C324.798 28.3923 324.566 33.4454 324.566 42.2529V65.3408C331.799 65.4335 337.038 63.6258 340.283 59.917C343.528 56.2082 345.15 50.2275 345.15 41.9756C345.15 30.0146 340.421 24.0342 330.964 24.0342Z" fill="#D3BBB6"/>
</svg>
